<?xml version="1.0" encoding="UTF-8"?>
<svg id="b" data-name="Layer 2" xmlns="http://www.w3.org/2000/svg" width="229.406" height="229.406" viewBox="0 0 229.406 229.406">
  <g id="c" data-name="Layer 1">
    <path d="m114.703,0C51.355,0,0,51.354,0,114.703s51.355,114.703,114.703,114.703,114.703-51.354,114.703-114.703S178.052,0,114.703,0Zm-19.726,193.774c-.426,3.708-.242,9.039-3.463,11.594-2.956,2.345-7.342,1.629-10.712.794-1.708-.423-3.392-.949-5.056-1.518-9.846-3.367-20.082-9.086-26.538-17.421-2.572-3.321-4.6-7.418-4.047-11.581.653-4.916,4.763-8.723,9.218-10.901,9.844-4.813,22.469-3.236,30.826,3.852,4.917,4.17,8.192,10.101,9.417,16.417.56,2.886.692,5.851.356,8.766Zm3.146-25.491c-.37-.556-.745-1.108-1.129-1.655-5.165-7.362-12.11-13.621-21.15-15.462-10.865-2.213-21.695,1.667-32.759-.046-3.453-.535-6.877-1.453-10.119-2.776-4.717-1.925-9.049-4.707-12.527-8.413-5.869-6.254-9.006-15.314-7.094-23.674,2.402-10.499,12.346-18.143,22.924-20.171,20.193-3.872,41.388,7.608,51.679,24.81,8.422,14.077,11.126,30.542,12.374,46.649.096,1.24-1.511,1.774-2.199.738Zm14.905,26.265c-1.512-24.848-2.92-58.386-16.645-84.17-5.035-9.461-12.68-17.942-22.659-21.854-5.526-2.167-11.503-2.85-17.284-4.201-5.78-1.351-11.653-3.549-15.6-7.983-4.936-5.546-5.952-13.866-3.806-20.973,2.146-7.107,7.069-13.101,12.752-17.879,12.741-10.711,27.297-16.488,43.307-20.412.102-.025.299-.066.579-.122,13.883-2.75,28.183-2.75,42.066,0,.278.055.475.096.577.121,16.01,3.924,30.566,9.701,43.307,20.412,5.683,4.777,10.606,10.772,12.752,17.879,2.147,7.107,1.131,15.428-3.806,20.973-3.947,4.434-9.82,6.632-15.6,7.983-5.781,1.351-11.756,2.034-17.284,4.201-9.978,3.912-17.624,12.393-22.659,21.854-13.725,25.784-15.134,59.323-16.646,84.17-.128,2.102-3.222,2.102-3.35,0Zm67.171-7.326c-6.456,8.336-16.693,14.055-26.539,17.421-1.664.569-3.347,1.095-5.056,1.518-3.371.834-7.756,1.551-10.713-.794-3.221-2.555-3.037-7.886-3.463-11.594-.335-2.915-.203-5.88.356-8.766,1.225-6.315,4.5-12.247,9.417-16.417,8.356-7.087,20.982-8.665,30.826-3.852,4.455,2.178,8.565,5.985,9.218,10.901.553,4.163-1.475,8.26-4.047,11.581Zm16.242-38.877c-3.243,1.323-6.666,2.241-10.119,2.776-11.064,1.713-21.894-2.166-32.759.046-9.04,1.841-15.985,8.1-21.151,15.462-.383.547-.759,1.099-1.129,1.655-.688,1.036-2.295.502-2.199-.738,1.249-16.108,3.953-32.572,12.375-46.649,10.291-17.202,31.485-28.682,51.679-24.81,10.578,2.028,20.522,9.672,22.923,20.171,1.913,8.361-1.224,17.421-7.094,23.674-3.478,3.706-7.81,6.488-12.527,8.413Z" fill="#f6f6f6"/>
  </g>
</svg>